<svg version="1.1" viewBox="0.0 0.0 960.1732283464567 298.50656167979" fill="none" stroke="none" stroke-linecap="square" stroke-miterlimit="10" xmlns:xlink="http://www.w3.org/1999/xlink" xmlns="http://www.w3.org/2000/svg"><clipPath id="p.0"><path d="m0 0l960.1732 0l0 298.50656l-960.1732 0l0 -298.50656z" clip-rule="nonzero"/></clipPath><g clip-path="url(#p.0)"><path fill="#000000" fill-opacity="0.0" d="m0 0l960.1732 0l0 298.50656l-960.1732 0z" fill-rule="evenodd"/><path fill="#000000" fill-opacity="0.0" d="m27.931854 281.2643c-16.158882 -64.67026 -19.985504 -143.79205 17.00518 -199.24904c20.735924 -31.087616 60.00116 -58.623093 97.26525 -55.762367c25.095856 1.9265823 16.46025 55.348648 1.3605194 75.48203c-25.584236 34.11302 -80.532425 49.503677 -89.78372 91.12627c-5.6954193 25.624344 23.44849 51.50334 46.93131 63.24243c36.711235 18.35199 80.16773 19.032288 121.070366 22.440186c61.03076 5.0848694 122.5397 9.514496 183.64633 5.4410095c93.88248 -6.258423 188.29984 3.4145813 282.26944 -1.36026c54.57245 -2.7729797 108.86719 -12.589874 161.87805 -25.842133c29.12677 -7.2814636 63.60736 -14.066956 81.620544 -38.081757c19.210022 -25.610367 0.6757202 -69.749695 -20.405151 -93.84411c-9.408813 -10.753845 -33.70331 -9.617569 -42.84973 1.3602524c-9.894348 11.875534 -14.887451 35.900253 -3.3999634 46.243256c16.781677 15.109741 48.77063 20.33554 67.33649 7.480057c17.50946 -12.124039 14.551514 -41.33165 12.920898 -62.56362c-1.2636719 -16.454262 -1.9310303 -35.93435 -13.602539 -47.603516c-29.853271 -29.847408 -73.8645 -45.50031 -115.628296 -51.68161c-84.769165 -12.5463705 -170.76868 15.761484 -256.42218 18.362078c-65.78534 1.9973564 -131.47815 -11.271194 -197.2489 -8.840311c-40.25763 1.4879208 -79.875854 12.53652 -118.34932 24.47922c-36.238403 11.248909 -78.42345 37.030735 -86.38109 74.12445c-2.4004974 11.189682 -8.671143 23.245438 -4.760483 34.00099c16.577927 45.594498 69.420334 80.51956 117.66774 85.68526c57.271088 6.131836 115.19263 1.5717773 172.76218 3.399292c47.169617 1.4973907 94.29755 6.648285 141.47552 5.4410095c48.956116 -1.2527618 98.48407 6.57843 146.91492 -0.6814575c35.45764 -5.315155 75.11969 -46.11406 70.057495 -81.60184c-4.5533447 -31.920563 -9.006165 -72.19551 -36.04712 -89.766014c-52.264343 -33.959995 -122.694275 -25.638863 -185.0069 -27.199726c-29.733765 -0.74479675 -59.419495 -6.6579475 -89.10211 -4.7622147c-43.837708 2.799778 -87.35953 10.4652405 -131.27295 11.560818c-41.49945 1.0353508 -82.99698 -5.877556 -124.47032 -4.0780983c-46.51361 2.0181503 -93.16078 -3.021122 -139.43341 -8.161514c-15.910088 -1.767437 -30.918678 -8.324863 -46.25238 -12.921066c-7.702446 -2.308773 -17.982153 -2.1523247 -22.4446 -8.840311" fill-rule="evenodd"/><path stroke="#ffffff" stroke-width="8.0" stroke-linejoin="round" stroke-linecap="butt" stroke-dasharray="32.0,24.0" d="m27.931854 281.2643c-16.158882 -64.67026 -19.985504 -143.79205 17.00518 -199.24904c20.735924 -31.087616 60.00116 -58.623093 97.26525 -55.762367c25.095856 1.9265823 16.46025 55.348648 1.3605194 75.48203c-25.584236 34.11302 -80.532425 49.503677 -89.78372 91.12627c-5.6954193 25.624344 23.44849 51.50334 46.93131 63.24243c36.711235 18.35199 80.16773 19.032288 121.070366 22.440186c61.03076 5.0848694 122.5397 9.514496 183.64633 5.4410095c93.88248 -6.258423 188.29984 3.4145813 282.26944 -1.36026c54.57245 -2.7729797 108.86719 -12.589874 161.87805 -25.842133c29.12677 -7.2814636 63.60736 -14.066956 81.620544 -38.081757c19.210022 -25.610367 0.6757202 -69.749695 -20.405151 -93.84411c-9.408813 -10.753845 -33.70331 -9.617569 -42.84973 1.3602524c-9.894348 11.875534 -14.887451 35.900253 -3.3999634 46.243256c16.781677 15.109741 48.77063 20.33554 67.33649 7.480057c17.50946 -12.124039 14.551514 -41.33165 12.920898 -62.56362c-1.2636719 -16.454262 -1.9310303 -35.93435 -13.602539 -47.603516c-29.853271 -29.847408 -73.8645 -45.50031 -115.628296 -51.68161c-84.769165 -12.5463705 -170.76868 15.761484 -256.42218 18.362078c-65.78534 1.9973564 -131.47815 -11.271194 -197.2489 -8.840311c-40.25763 1.4879208 -79.875854 12.53652 -118.34932 24.47922c-36.238403 11.248909 -78.42345 37.030735 -86.38109 74.12445c-2.4004974 11.189682 -8.671143 23.245438 -4.760483 34.00099c16.577927 45.594498 69.420334 80.51956 117.66774 85.68526c57.271088 6.131836 115.19263 1.5717773 172.76218 3.399292c47.169617 1.4973907 94.29755 6.648285 141.47552 5.4410095c48.956116 -1.2527618 98.48407 6.57843 146.91492 -0.6814575c35.45764 -5.315155 75.11969 -46.11406 70.057495 -81.60184c-4.5533447 -31.920563 -9.006165 -72.19551 -36.04712 -89.766014c-52.264343 -33.959995 -122.694275 -25.638863 -185.0069 -27.199726c-29.733765 -0.74479675 -59.419495 -6.6579475 -89.10211 -4.7622147c-43.837708 2.799778 -87.35953 10.4652405 -131.27295 11.560818c-41.49945 1.0353508 -82.99698 -5.877556 -124.47032 -4.0780983c-46.51361 2.0181503 -93.16078 -3.021122 -139.43341 -8.161514c-15.910088 -1.767437 -30.918678 -8.324863 -46.25238 -12.921066c-7.702446 -2.308773 -17.982153 -2.1523247 -22.4446 -8.840311" fill-rule="evenodd"/></g></svg>