<svg version="1.1" viewBox="0.0 0.0 912.0 48.0" fill="none" stroke="none" stroke-linecap="square" stroke-miterlimit="10" xmlns:xlink="http://www.w3.org/1999/xlink" xmlns="http://www.w3.org/2000/svg"><clipPath id="p.0"><path d="m0 0l912.0 0l0 48.0l-912.0 0l0 -48.0z" clip-rule="nonzero"/></clipPath><g clip-path="url(#p.0)"><path fill="#000000" fill-opacity="0.0" d="m0 0l912.0 0l0 48.0l-912.0 0z" fill-rule="evenodd"/><path fill="#000000" fill-opacity="0.0" d="m10.191633 21.5822c61.09468 -6.0614233 131.42131 9.018238 197.23099 6.841833c33.789505 -1.1174603 66.00493 -4.2998257 99.9305 -5.1692924c31.420471 -0.80526733 62.59198 3.6937733 94.01245 2.8885078c53.481415 -1.3706589 104.900085 -8.385328 158.4415 -7.1462154c37.127197 0.8592377 71.541565 5.164753 108.478516 6.386301c24.86731 0.8223915 51.42505 0.21465874 74.94672 -1.8247318c14.334595 -1.2428436 29.85431 -3.2923641 44.70526 -2.4329758c39.89154 2.308424 77.21912 8.058842 118.34039 8.058842" fill-rule="evenodd"/><path stroke="#ffffff" stroke-width="12.0" stroke-linejoin="round" stroke-linecap="butt" stroke-dasharray="48.0,36.0" d="m10.191633 21.5822c61.09468 -6.0614233 131.42131 9.018238 197.23099 6.841833c33.789505 -1.1174603 66.00493 -4.2998257 99.9305 -5.1692924c31.420471 -0.80526733 62.59198 3.6937733 94.01245 2.8885078c53.481415 -1.3706589 104.900085 -8.385328 158.4415 -7.1462154c37.127197 0.8592377 71.541565 5.164753 108.478516 6.386301c24.86731 0.8223915 51.42505 0.21465874 74.94672 -1.8247318c14.334595 -1.2428436 29.85431 -3.2923641 44.70526 -2.4329758c39.89154 2.308424 77.21912 8.058842 118.34039 8.058842" fill-rule="evenodd"/></g></svg>